Coordinates
version=1
nRows=27
nColumns=12
inDegrees=yes

Units are S.I. units (second, meters, Newtons, ...)
Angles are in degrees

endheader
time	SC_y	SC_z	SC_x	AC_y	AC_z	AC_x	GH_y	GH_z	GH_yy	EL_x	PS_y
       0.0              -32.08          3.943          72.71          65.76         -7.999         -1.012         -177.0          27.07         -136.4          29.53          159.1
   0.03927              -32.09          3.943          72.71          65.76         -7.999         -1.013         -177.0          27.07         -136.4          29.55          159.1
   0.07853              -32.09          3.943           72.7          65.76         -7.998         -1.015         -177.0          27.08         -136.4          29.56          159.1
    0.1178              -32.09          3.943           72.7          65.76         -7.998         -1.016         -176.9          27.09         -136.4          29.57          159.0
    0.1571               -32.1          3.943           72.7          65.76         -7.997         -1.018         -176.9           27.1         -136.3          29.59          159.0
    0.1963               -32.1          3.943          72.69          65.75         -7.997          -1.02         -176.9           27.1         -136.3           29.6          159.0
    0.2356              -32.11          3.943          72.69          65.75         -7.996         -1.022         -176.9          27.11         -136.3          29.62          159.0
    0.2749              -32.11          3.943          72.69          65.75         -7.995         -1.024         -176.8          27.12         -136.3          29.64          159.0
    0.3141              -32.12          3.943          72.68          65.75         -7.994         -1.026         -176.8          27.13         -136.2          29.66          159.0
    0.3534              -32.13          3.943          72.68          65.74         -7.993         -1.028         -176.8          27.14         -136.2          29.68          159.0
    0.3927              -32.13          3.943          72.67          65.74         -7.992         -1.031         -176.7          27.15         -136.2           29.7          158.9
    0.4319              -32.14          3.943          72.67          65.73         -7.991         -1.033         -176.7          27.16         -136.1          29.73          158.9
    0.4712              -32.15          3.943          72.66          65.73          -7.99         -1.036         -176.7          27.18         -136.1          29.76          158.9
    0.5105              -32.16          3.943          72.66          65.73         -7.989         -1.039         -176.6          27.19         -136.0          29.78          158.9
    0.5497              -32.17          3.943          72.65          65.72         -7.988         -1.043         -176.6          27.21         -136.0          29.82          158.9
     0.589              -32.18          3.943          72.64          65.72         -7.987         -1.046         -176.5          27.22         -135.9          29.85          158.8
    0.6283              -32.19          3.944          72.64          65.71         -7.985          -1.05         -176.5          27.24         -135.9          29.89          158.8
    0.6675               -32.2          3.944          72.63           65.7         -7.983         -1.055         -176.4          27.26         -135.8          29.93          158.8
    0.7068              -32.21          3.944          72.62           65.7         -7.982          -1.06         -176.4          27.28         -135.8          29.97          158.7
    0.7461              -32.23          3.944          72.61          65.69          -7.98         -1.065         -176.3          27.31         -135.7          30.02          158.7
    0.7853              -32.24          3.944           72.6          65.68         -7.978         -1.071         -176.2          27.33         -135.6          30.07          158.7
    0.8246              -32.26          3.944          72.59          65.67         -7.975         -1.077         -176.2          27.36         -135.5          30.13          158.6
    0.8639              -32.28          3.944          72.58          65.66         -7.973         -1.084         -176.1          27.39         -135.4          30.19          158.6
    0.9031               -32.3          3.944          72.56          65.65          -7.97         -1.091         -176.0          27.43         -135.3          30.26          158.5
    0.9424              -32.32          3.944          72.55          65.64         -7.966           -1.1         -175.9          27.46         -135.2          30.34          158.5
    0.9817              -32.35          3.945          72.53          65.63         -7.963          -1.11         -175.7          27.51         -135.1          30.43          158.4
     1.021              -32.38          3.945          72.51          65.61         -7.959          -1.12         -175.6          27.55         -135.0          30.52          158.3
